<?xml version="1.0" encoding="iso-8859-1"?>
<!-- Generator: Adobe Illustrator 21.0.0, SVG Export Plug-In . SVG Version: 6.00 Build 0)  -->
<svg xmlns="http://www.w3.org/2000/svg" xmlns:xlink="http://www.w3.org/1999/xlink" version="1.1" id="Capa_1" x="0px" y="0px" viewBox="0 0 512 512" style="enable-background:new 0 0 512 512;" xml:space="preserve" width="512" height="512">
<g>
	<g>
		<path style="fill:#E2ECF5;" d="M308.768,258.58V57.963c0-27.796-22.533-50.329-50.329-50.329    c-27.719,0-50.329,22.457-50.329,50.329V258.58c-45.792,19.564-77.885,65.009-77.885,117.954    c0,70.811,57.404,128.215,128.215,128.215s128.215-57.404,128.215-128.215C386.653,323.59,354.56,278.145,308.768,258.58z"/>
		<path style="fill:#EA5172;" d="M275.562,281.475v-80.718h-39.123v80.718c-44.458,9.057-77.913,48.376-77.913,95.51    c0,53.833,43.641,97.474,97.474,97.474s97.474-43.641,97.474-97.474C353.474,329.851,320.02,290.532,275.562,281.475z"/>
	</g>
	<g>
		<path style="fill:#E21743;" d="M178.526,376.984c0-47.133,33.454-86.452,77.913-95.51v-80.718h-20v80.718    c-44.458,9.057-77.913,48.376-77.913,95.51c0,57.671,49.824,102.841,107.474,96.967    C216.865,468.944,178.526,427.442,178.526,376.984z"/>
		<path style="fill:#C5D1DB;" d="M150.59,376.534c0-52.945,32.093-98.39,77.885-117.954V57.963    c0-24.307,17.232-44.589,40.147-49.298c-31.199-6.41-60.512,17.372-60.512,49.298V258.58    c-45.792,19.564-77.885,65.009-77.885,117.954c0,74.611,63.524,133.696,138.397,127.813    C202.571,499.157,150.59,443.917,150.59,376.534z"/>
	</g>
	<g>
		<path d="M228.938,193.256v82.278c-45.5,12.11-77.913,53.824-77.913,101.45c0,57.883,47.092,104.975,104.975,104.975    s104.975-47.092,104.975-104.975c0-47.626-32.413-89.34-77.913-101.45v-82.278H228.938z M345.975,376.984    c0,49.612-40.362,89.975-89.975,89.975s-89.975-40.362-89.975-89.975c0-42.595,30.242-79.672,71.91-88.161l6.003-1.223v-79.345    h24.123v79.345l6.003,1.223C315.732,297.313,345.975,334.39,345.975,376.984z"/>
		<path d="M313.822,253.534V57.812C313.822,25.935,287.884,0,256,0c-31.927,0-57.822,25.836-57.822,57.812v91.594h15V57.812    c0-11.438,4.454-22.186,12.547-30.27c26.88-26.909,73.098-7.616,73.098,30.27v2.684h-31.227v15h31.227v22.237h-31.227v15h31.227    v22.237h-31.227v15h31.227v113.37l4.554,1.945c44.532,19.022,73.307,62.605,73.307,111.032C376.683,442.862,322.545,497,256,497    s-120.683-54.138-120.683-120.683c0-48.427,28.774-92.01,73.307-111.032l4.554-1.945v-93.573h-15v83.768    c-47.465,22.352-77.86,70.009-77.86,122.783C120.317,451.133,181.185,512,256,512s135.683-60.867,135.683-135.683    C391.683,323.543,361.287,275.886,313.822,253.534z"/>
	</g>
	<g>
		<path style="fill:#FFFFFF;" d="M274.66,382.448h-15v-15h15V382.448z M249.66,382.448h-15v-15h15V382.448z"/>
	</g>
</g>















</svg>
