<?xml version="1.0"?>
<svg xmlns="http://www.w3.org/2000/svg" id="Layer_1" data-name="Layer 1" viewBox="0 0 512 512" width="512" height="512"><title>Vision Approved</title><path d="M418.82,238.15a100.032,100.032,0,1,1-118.96,98.2c0-3.16.15-6.29.44-9.37a100.071,100.071,0,0,1,118.52-88.83Z" style="fill:#6fe3ff"/><path d="M435.58,207.65a236.986,236.986,0,0,1-16.3,28.12l-.46,2.38A100.071,100.071,0,0,0,300.3,326.98,236.03,236.03,0,0,1,12.14,207.65a235.793,235.793,0,0,1,423.44,0Zm-124.39,0a86.01,86.01,0,1,0-86.01,86.01A86.006,86.006,0,0,0,311.19,207.65Z" style="fill:#e48e66"/><path d="M225.18,121.64a86.01,86.01,0,1,1-86.01,86.01A86.006,86.006,0,0,1,225.18,121.64Zm36.61,121.45a52.862,52.862,0,0,0,14.41-48.13,26.458,26.458,0,0,1-36.87-37.95c.55-.55,1.13-1.08,1.72-1.57a52.928,52.928,0,1,0,20.74,87.65Z" style="fill:#af593c"/><path d="M276.2,194.96a52.938,52.938,0,1,1-35.15-39.52c-.59.49-1.17,1.02-1.72,1.57a26.458,26.458,0,0,0,36.87,37.95Z" style="fill:#f8ec7d"/><path d="M300.3,326.98A236.03,236.03,0,0,1,12.14,207.65a235.793,235.793,0,0,1,423.44,0,236.986,236.986,0,0,1-16.3,28.12" style="fill:none;stroke:#63316d;stroke-linecap:round;stroke-linejoin:round;stroke-width:12px"/><path d="M239.33,194.44a26.439,26.439,0,0,0,36.87.52,52.938,52.938,0,1,1-35.15-39.52c-.59.49-1.17,1.02-1.72,1.57A26.46,26.46,0,0,0,239.33,194.44Z" style="fill:none;stroke:#63316d;stroke-linecap:round;stroke-linejoin:round;stroke-width:12px"/><circle cx="225.18" cy="207.65" r="86.01" style="fill:none;stroke:#63316d;stroke-linecap:round;stroke-linejoin:round;stroke-width:12px"/><path d="M418.82,238.15a100.032,100.032,0,1,1-118.96,98.2c0-3.16.15-6.29.44-9.37a100.071,100.071,0,0,1,118.52-88.83Z" style="fill:none;stroke:#63316d;stroke-linecap:round;stroke-linejoin:round;stroke-width:12px"/><polyline points="359.86 333.59 388.41 361.46 439.86 311.24" style="fill:none;stroke:#63316d;stroke-linecap:round;stroke-linejoin:round;stroke-width:12px"/></svg>
